HIERARCHY
ROOT Hips
{
	OFFSET 0.00000 0.00000 0.00000
	CHANNELS 6 Xposition Yposition Zposition Zrotation Yrotation Xrotation 
	JOINT LHipJoint
	{
		OFFSET 0 0 0
		CHANNELS 3 Zrotation Yrotation Xrotation
		JOINT LeftHip
		{
			OFFSET 1.37324 -1.83837 0.85674
			CHANNELS 3 Zrotation Yrotation Xrotation
			JOINT LeftKnee
			{
				OFFSET 2.53826 -6.97383 0.00000
				CHANNELS 3 Zrotation Yrotation Xrotation
				JOINT LeftAnkle
				{
					OFFSET 2.65296 -7.28895 0.00000
					CHANNELS 3 Zrotation Yrotation Xrotation
					JOINT LeftToe
					{
						OFFSET 0.22100 -0.60718 2.29776
						CHANNELS 3 Zrotation Yrotation Xrotation
						End Site
						{
							OFFSET 0.00000 -0.00000 1.19228
						}
					}
				}
			}
		}
	}
	JOINT RHipJoint
	{
		OFFSET 0 0 0
		CHANNELS 3 Zrotation Yrotation Xrotation
		JOINT RightHip
		{
			OFFSET -1.30156 -1.83836 0.85673
			CHANNELS 3 Zrotation Yrotation Xrotation
			JOINT RightKnee
			{
				OFFSET -2.63627 -7.24310 0.00000
				CHANNELS 3 Zrotation Yrotation Xrotation
				JOINT RightAnkle
				{
					OFFSET -2.62024 -7.19904 0.00000
					CHANNELS 3 Zrotation Yrotation Xrotation
					JOINT RightToe
					{
						OFFSET -0.20765 -0.57052 2.42402
						CHANNELS 3 Zrotation Yrotation Xrotation
						End Site
						{
							OFFSET -0.00000 -0.00000 1.24980
						}
					}
				}
			}
		}
	}
	JOINT lowerback
	{
		OFFSET 0 0 0
		CHANNELS 3 Zrotation Yrotation Xrotation
		JOINT Chest
		{
			OFFSET 0.05739 2.14162 -0.22815
			CHANNELS 3 Zrotation Yrotation Xrotation
			JOINT Chest2
			{
				OFFSET 0.02798 2.14167 0.08145
				CHANNELS 3 Zrotation Yrotation Xrotation
				JOINT lowerneck
				{
					OFFSET 0 0 0
					CHANNELS 3 Zrotation Yrotation Xrotation
					JOINT Neck
					{
						OFFSET -0.07019 1.58903 0.32980
						CHANNELS 3 Zrotation Yrotation Xrotation
						JOINT Head
						{
							OFFSET -0.03205 1.65283 -0.21190
							CHANNELS 3 Zrotation Yrotation Xrotation
							End Site
							{
								OFFSET -0.00726 1.66788 -0.10849
							}
						}
					}
				}
				JOINT LeftCollar
				{
					OFFSET 0 0 0
					CHANNELS 3 Zrotation Yrotation Xrotation
					JOINT LeftShoulder
					{
						OFFSET 3.92858 0.97533 -0.07938
CHANNELS 3 Zrotation Xrotation Yrotation
						JOINT LeftElbow
						{
OFFSET 0 -5.583450 -0.000000
CHANNELS 3 Zrotation Xrotation Yrotation
							JOINT LeftWrist
							{
OFFSET 0 -3.710870 0.000000
CHANNELS 3 Zrotation Xrotation Yrotation
								JOINT lhand
								{
									OFFSET 0 0 0
CHANNELS 3 Zrotation Xrotation Yrotation
									JOINT LFingers
									{
OFFSET 0 -0.562320 -0.000000
CHANNELS 3 Zrotation Xrotation Yrotation
										End Site
										{
OFFSET 0 -0.453360 -0.000000
										}
									}
								}
								JOINT LThumb
								{
OFFSET 0 0.000000 0.000000
CHANNELS 3 Zrotation Xrotation Yrotation
									End Site
									{
OFFSET 0 -0.460280 0.460280
									}
								}
							}
						}
					}
				}
				JOINT RightCollar
				{
					OFFSET 0 0 0
					CHANNELS 3 Zrotation Yrotation Xrotation
					JOINT RightShoulder
					{
						OFFSET -3.89897 1.08887 -0.22589
CHANNELS 3 Zrotation Xrotation Yrotation
						JOINT RightElbow
						{
OFFSET 0 -5.203570 -0.000000
CHANNELS 3 Zrotation Xrotation Yrotation
							JOINT RightWrist
							{
OFFSET 0 -3.649370 0.000000
CHANNELS 3 Zrotation Xrotation Yrotation
								JOINT rhand
								{
									OFFSET 0 0 0
CHANNELS 3 Zrotation Xrotation Yrotation
									JOINT RFingers
									{
OFFSET 0 -0.618000 -0.000000
CHANNELS 3 Zrotation Xrotation Yrotation
										End Site
										{
OFFSET 0 -0.498240 -0.000000
										}
									}
								}
								JOINT RThumb
								{
OFFSET 0 0.000000 0.000000
CHANNELS 3 Zrotation Xrotation Yrotation
									End Site
									{
OFFSET 0 -0.505850 0.505850
									}
								}
							}
						}
					}
				}
			}
		}
	}
}
MOTION
Frames: 5
Frame Time: .0083333
1.8131 15.1379 -12.7182 -3.6906 3.9955 -9.5872 0.0000 0.0000 0.0000 -14.0040 -8.8061 -32.6893 21.6106 19.9377 94.7137 -0.0620 -10.2245 -6.1048 0.1647 -2.6146 -7.2075 0.0000 0.0000 0.0000 16.4254 7.9282 -45.1369 -3.4118 -11.3336 33.4134 -0.0161 -4.2464 -6.6551 -0.5780 4.8684 -13.5336 3.0366 -2.7901 23.0951 3.3878 -2.5471 3.6310 2.7613 -1.2483 -8.8539 0.7042 2.0991 -23.0387 -5.3784 4.0026 19.5878 -1.4159 1.2279 10.1941 -0.0000 -0.0000 0.0000 8.4219 12.0052 -50.4288 129.3495 -53.2545 93.3055 26.8312 -11.1032 4.5844 0.0 0.0 0.0 -7.1250 0.0 0.0 0.1305 24.8451 0.0636 -0.0000 -0.0000 0.0000 -4.9502 34.2496 22.4019 -68.2620 -58.137 -41.2921 -35.1821 -15.1002 -4.9963 0.0 0.0 0.0 7.1250 0.0 -0.0 -6.3112 23.8798 -3.2349
1.7674 15.1279 -12.1807 -3.8376 4.6639 -10.3255 0.0000 0.0000 0.0000 -13.1631 -8.4824 -32.7208 22.3625 19.8656 96.9225 -0.1557 -10.5041 -4.5407 0.0638 -1.6298 -4.4836 0.0000 0.0000 0.0000 16.3904 7.9396 -43.3311 -3.1846 -10.9881 32.2397 0.0059 -5.2703 -7.3315 -0.4368 4.2408 -11.7551 2.8737 -2.8245 23.2544 3.4669 -2.6161 3.6961 2.9683 -1.2740 -8.8530 0.5386 1.9039 -22.9920 -5.1659 3.7713 20.2017 -1.3532 1.1231 10.3909 -0.0000 0.0000 0.0000 9.295 12.3704 -50.5935 131.3458 -52.4381 94.8966 26.9092 -9.8531 5.5172 0.0 0.0 0.0 -7.1250 0.0 0.0 0.1564 23.7976 0.08 -0.0000 0.0000 0.0000 -4.918 34.2952 22.0849 -69.6154 -58.3702 -42.443 -35.2387 -15.0788 -4.8093 0.0 0.0 0.0 7.1250 0.0 -0.0 -6.3725 24.1025 -3.2338
1.7211 15.1217 -11.6473 -4.2041 5.3342 -11.1963 0.0000 0.0000 0.0000 -12.1943 -8.3898 -32.6599 22.9825 19.7854 98.7504 -0.1022 -10.9054 -5.9634 0.1681 -2.6410 -7.2809 0.0000 0.0000 0.0000 16.7352 7.7994 -41.3795 -3.1706 -10.9662 32.1661 0.0587 -6.6908 -7.9003 -0.2808 3.4079 -9.4164 2.9425 -2.8630 23.5038 3.5731 -2.6242 3.7522 3.0609 -1.2765 -8.9194 0.4094 1.6613 -22.9672 -5.0163 3.4792 20.8905 -1.3293 0.9844 10.6221 0.0000 0.0000 0.0000 10.0806 12.7504 -50.5875 132.8387 -51.7844 96.0749 26.9513 -8.467 5.8891 0.0 0.0 0.0 -7.1250 0.0 0.0 0.1731 23.3791 0.0902 0.0000 0.0000 0.0000 -4.8095 34.2343 21.6284 -70.7624 -58.5544 -43.4206 -35.3266 -14.9531 -4.521 0.0 0.0 0.0 7.1250 0.0 -0.0 -6.4675 24.4462 -3.2309
1.6810 15.0840 -11.1066 -4.5511 6.0465 -12.1621 0.0000 0.0000 0.0000 -11.3734 -8.4679 -32.8568 23.5026 19.7033 100.2896 -0.1127 -11.7811 -6.5541 0.1089 -2.1283 -5.8603 0.0000 0.0000 0.0000 17.2460 7.2234 -39.2629 -3.2307 -11.0594 32.4804 0.1170 -7.6113 -7.6943 -0.1391 2.4037 -6.6228 3.0878 -2.8847 23.7677 3.6297 -2.5942 3.8117 3.0442 -1.2635 -8.9963 0.1508 1.3662 -22.7804 -4.7659 3.1191 21.4199 -1.2577 0.8233 10.7612 -0.0000 0.0000 0.0000 10.7688 13.1273 -50.4265 133.8360 -51.3262 96.856 26.7251 -7.3322 6.2229 0.0 0.0 0.0 -7.1250 0.0 0.0 -0.0073 23.0195 -0.0039 -0.0000 0.0000 0.0000 -4.6476 34.0777 21.0816 -71.7489 -58.7032 -44.2629 -35.4974 -14.6889 -4.1907 0.0 0.0 0.0 7.1250 0.0 -0.0 -6.6285 24.8365 -3.252
1.6406 15.0223 -10.5671 -4.9286 6.6974 -13.2139 0.0000 0.0000 0.0000 -10.4829 -8.4848 -33.4052 23.8539 19.6401 101.3333 -0.1339 -11.8588 -6.2732 0.0836 -1.8654 -5.1337 0.0000 0.0000 0.0000 17.9317 6.5097 -37.5043 -3.5219 -11.4955 33.9698 0.1747 -7.8194 -5.5950 -0.3043 3.5465 -9.8042 3.2695 -2.8543 24.1025 3.6731 -2.4844 3.9061 2.9693 -1.2137 -9.0747 -0.1099 1.0152 -22.5944 -4.5365 2.6782 21.8438 -1.2048 0.6248 10.8624 -0.0000 0.0000 0.0000 11.3514 13.4697 -50.063 134.4151 -51.0518 97.3073 27.301 -6.6165 6.3352 0.0 0.0 0.0 -7.1250 0.0 0.0 0.4118 22.8582 0.2195 -0.0000 0.0000 0.0000 -4.4842 33.6789 20.503 -72.4525 -58.804 -44.8644 -35.958 -14.5741 -4.1499 0.0 0.0 0.0 7.1250 0.0 -0.0 -6.9745 24.8568 -3.4208
